<svg width="20" height="20" viewBox="0 0 20 20" fill="none" xmlns="http://www.w3.org/2000/svg">
<path d="M0.324256 6.50787H4.40305V19.6032H0.324256V6.50787ZM2.36081 0C3.66352 0 4.72162 1.0581 4.72162 2.36081C4.72162 3.66352 3.66352 4.72162 2.36081 4.72162C1.0581 4.72162 0 3.66352 0 2.36081C0 1.0581 1.0581 0 2.36081 0ZM6.95727 19.6089H11.0247V13.1295C11.0247 11.4229 11.3489 9.76749 13.4651 9.76749C15.5813 9.76749 15.5813 11.7187 15.5813 13.2433V19.6089H19.6488V12.4241C19.6488 8.89712 18.8865 6.18361 14.7679 6.18361C12.7825 6.18361 11.457 7.27015 10.9109 8.29981H10.8597V6.50787H6.95159V19.6032L6.95727 19.6089Z" fill="white"/>
</svg>
