<svg xmlns="http://www.w3.org/2000/svg" viewBox="0 0 200 40" fill="none">
  <!-- Philips Shield -->
  <path d="M0 0h40v20c0 11.046-8.954 20-20 20S0 31.046 0 20V0z" fill="#004C97"/>
  <path d="M20 6c-5.523 0-10 4.477-10 10s4.477 10 10 10 10-4.477 10-10-4.477-10-10-10zm0 16c-3.314 0-6-2.686-6-6s2.686-6 6-6 6 2.686 6 6-2.686 6-6 6z" fill="white"/>
  <circle cx="20" cy="16" r="3" fill="white"/>
  
  <!-- PHILIPS Text -->
  <text x="50" y="28" font-family="Inter, Arial, sans-serif" font-size="24" font-weight="600" fill="#004C97">PHILIPS</text>
</svg>
